<svg xmlns="http://www.w3.org/2000/svg" fill="none" viewBox="0 0 700 293"><path fill="#EC1C24" d="M306.529 174.994c-.58 6.228-1.328 12.44-1.898 18.667-.103 1.127-.441 1.628-1.53 1.775-.862.115-2.018.123-2.457.662-.431.53-.217 1.671-.126 2.528.386 3.624-.794 6.928-1.87 10.295-1.283 4.015-2.505 8.067-3.417 12.178-.756 3.405-.157 6.852.746 10.204.463 1.732 1.209 3.418 1.411 5.174.184 1.621.005 3.352-.37 4.95-.401 1.709-1.704 2.051-3.143.99-1.364-1-2.636-2.124-4.307-3.485-.252.857-.572 1.472-.592 2.094-.066 1.875-1.976 3.178-3.574 2.278-1.968-1.111-3.642-2.588-4.826-4.549-.209-.342-.391-.761-.411-1.151-.209-4.259-.807-8.556-.424-12.765.268-2.936-.41-5.449-1.232-8.065-1.126-3.591-2.477-7.119-3.443-10.751-.43-1.623-.317-3.445-.166-5.151.146-1.674.653-3.314 1.016-5.048-1.422-.24-2.745-.459-4.065-.688-.746-.129-.96-.585-.971-1.331a4645.33 4645.33 0 0 0-.375-24.754c-.058-3.152-.285-6.303-.287-9.45-.003-2.352.01-4.746.423-7.047.381-2.134 1.305-4.171 1.988-6.252.709-2.145 1.412-4.287 2.067-6.271-1.89-.184-3.785-.045-5.446-.597-3.544-1.179-6.172-3.735-7.944-6.936-.6-1.078-.448-2.8-.144-4.113.759-3.299 1.765-6.542 2.745-9.786.895-2.968 1.948-5.887 2.813-8.866 1.056-3.629 3.407-6.033 6.724-7.666 2.479-1.225 4.916-2.538 7.396-3.823-.431-1.885 1.641-1.57 2.331-2.619-.957-2.344-1.61-4.95-2.994-7.082-1.686-2.6-1.184-5.378-1.36-8.054-.179-2.677 1.602-4.63 3.883-5.913 2.415-1.355 5.167-1.824 7.848-2.013 2.588-.184 5.01.756 6.979 2.664 1.834 1.781 3.052 3.893 3.752 6.315.169.58.219 1.243.131 1.843-.34 2.306-.582 4.657-1.232 6.88-.262.89-1.517 1.472-2.281 2.235a20.664 20.664 0 0 0-1.837 2.072c-.101.128.106.637.31.824.819.756 1.663 1.492 2.555 2.155.887.66 1.689 1.29 1.727 2.548.01.279.506.7.844.783 1.557.378 3.14.661 4.929 1.296l-1.277.874c1.232 1.011 2.439 1.86 3.465 2.891.781.786 1.522 1.726 1.946 2.737 2.636 6.278 3.178 12.903 3.112 19.627-.02 2.049-.612 3.486-2.714 4.322-2.457.978-4.751 2.387-7.735 1.999.023.496-.005.854.058 1.192.988 5.418 2.019 10.832 2.967 16.258.287 1.651.325 3.344.529 5.013l-.247 17.903Zm-19.416 48.466.416-.032c.328-1.011.927-2.019.937-3.032.041-4.383-.017-8.771-.189-13.148-.115-2.921-.763-5.822.139-8.743.355-1.154.386-2.407.605-3.888-.371.297-.613.388-.64.526-.315 1.528-.754 3.055-.857 4.602-.252 3.672-.31 7.354-.502 11.029-.166 3.132-.499 6.262-.587 9.395-.033 1.089.439 2.192.678 3.291Z"/><path fill="#25A149" d="M428.002 146.767c-.751-2.417-.633-5.267-.593-5.94.038-.67.038-8.944.436-10.567.393-1.621.356-8.392 0-10.131-.358-1.742-1.187-4.947-1.187-4.947l1.107-.832s-.119-.237-.595-.991c-.474-.751-.829-3.639-1.109-4.869-.272-1.224-1.699-7.558-1.976-9.773-.277-2.218-1.426-7.956-2.218-9.857-.788-1.9-2.296-5.025-4.629-6.056-2.337-1.028-4.315-2.296-6.255-2.613-1.938-.315-5.5-1.543-6.729-1.742-1.228-.199-1.82-1.267-2.1-.632-.274.632-1.146.159-1.265.08-.116-.08-2.651-2.812-3.203-4.077-.557-1.265 1.462-4.247 1.542-7.06.078-2.807-.504-8.019-2.638-10.398-2.138-2.374-6.308-4.43-9.237-4.312-2.928.119-3.997.2-3.997.2l-.514.433s.159-.275-.199.04c-.353.318-.711.555-.711.555s.237.04-.28.04c-.511 0-.748.04-.748.04s-.121.078-.28.197c-.156.118-.713.395-.713.395s-.434.318-.988.792c-.554.474-1.505 1.386-2.969 1.268-1.462-.119-2.296-.913-2.296-.913s.477.872.872 1.069c.396.196.592.277.592.277s-1.028.118-1.421.635c-.396.514-.635 1.109-.635 1.109s.197-.318.635-.635c.434-.315.711-.434.711-.434s-.57 1.14-.792 1.502c-.315.515-.95.794-.95.794s.514.237 1.147-.159c.121-.075.436-.239.436-.239s-.673.988-.474 1.82c.073.317.156.794.156.794s0-.436.159-.794c.159-.353.792.04.792.04s-.633 1.069-.951 1.386c-.315.318-.829.555-.829.555s.711.158 1.187-.278c.146-.133.633-.473.633-.473s.396.829.829 2.532c.439 1.701.28 5.064.99 5.66.714.593 1.109.948 1.029 1.384-.078.436-.95 3.483-.434 3.841.514.355 1.109.315 1.424.277.318-.04.676-.04.676-.04s.116 1.346.511 1.78c.398.435.953.516.953.516s-.081.789.396 1.109c.473.315.869.75.909 1.147.041.398-.592 1.469.396 2.268.847.685 2.026.416 2.026.416l1.616-.232s-.595.635-.988.675c-.398.038-1.903.514-2.735.789-.831.28-4.551 1.545-5.894 2.535-1.346.988-4.396 1.583-5.147 3.957-.753 2.374-3.404 4.947-4.277 7.324-.869 2.374-5.262 11.318-6.449 12.86-1.189 1.548-2.298 3.801-2.021 4.159.28.355 1.663 1.542 2.772 1.938 1.109.398 2.137 1.466 2.137 1.466s-1.423 5.699-1.822 7.163c-.395 1.464-1.345 12.271-1.305 13.617.04 1.346-.396 4.866-.991 6.726-.592 1.863-1.938 6.217-1.938 7.757 0 1.548.328 2.601 2.067 5.298l5.391 2.205c.736-.446 1.01-2.344 1.01-2.344s1.268-.423 1.086-1.184c-.183-.767-.211-2.457-.211-3.405 0-.95.799-3.352.229-4.567-.575-1.212-2.051-3.878-1.998-4.458.055-.582-.053-4.988.766-6.545.819-1.558 3.455-6.439 3.984-8.39.527-1.95 2.284-8.037 2.48-8.271.197-.239.713-1.505 1.308-3.009.592-1.505 2.848-4.71 3.009-4.67.156.04.708.436.708 2.099 0 1.659.991 3.284.714 5.54-.278 2.255-.436 3.997-.474 4.947-.04.95.433 6.096-.713 8.271-1.15 2.18-1.268 4.554-.832 5.424.436.869.753 3.523.753 3.523s-1.544 5.935-.831 9.536c.71 3.602.433 11.679.869 14.093.436 2.415 1.235 11.281 1.276 12.864.045 1.582.995 3.009 1.207 4.853.211 1.848 1.003 3.748.897 4.592-.26 2.039.511 1.074 1.368.897 1.036-.214 1.323.58 1.323.58s-.95 1.059-.899 3.642c.053 2.588 2.694 17.309 2.744 20.424.053 3.112.424 9.501-.579 11.399-1.001 1.897-5.487 8.76-4.643 10.766.842 2.006 6.014 3.684 7.755 2.943 1.744-.738 3.062-4.949 3.38-6.64.317-1.684 3.165-2.848 2.953-5.172-.211-2.321-1.529-8.705-1.582-10.34-.053-1.636 1.265-7.125 1.688-10.978.424-3.851 1.953-7.808 1.636-12.402-.315-4.592.607-1.979.872-3.561.262-1.585.343-12.957.343-12.957s1-1.847.632-2.585c-.368-.739-.159-3.854-.159-4.645 0-.791 1.137-1.056 1.192.791.051 1.847.895 5.494.951 6.815.052 1.318.763 4.274 1.187 5.698.42 1.426 1.262 6.222 1.159 7.067-.109.844.368 1.161.842 1.053a84.863 84.863 0 0 1 1.265-.259s-.209 5.38.95 8.23c1.162 2.851 2.376 6.122 3.377 8.549 1.006 2.43 2.22 11.452 2.22 12.614 0 1.162-2.671 4.017-2.195 5.821.791 3.01 3.433 2.755 3.433 3.861 0 1.109.557 8.519 2.616 8.947 2.056.426 9.392-.582 9.337-3.009-.053-2.427-3.692-6.754-4.063-8.234-.368-1.476-2.109-6.965-2.109-8.127 0-1.162-.159-7.863.527-13.246.685-5.381-.383-12.105-1.331-17.566-.204-1.17 4.355-.794 3.932-1.427-.421-.635-.978-3.772-1.031-5.461-.056-1.689-.093-2.828-.726-5.308-.635-2.479.159-6.282.053-7.971-.106-1.689.106-5.907-.265-7.125-.368-1.212-.055-3.48-.055-3.48s.953.171 1.429-.187c.474-.355.869-.632.869-.632s.424.474 1.555 0c1.137-.474 1.651-1.028 1.651-1.028s1.19-.396 1.782-.91c.592-.514 1.741-1.149 2.059-2.891.315-1.739 1.028-4.869.275-7.281Z"/><path fill="#1D588E" fill-rule="evenodd" d="M277.218 8.383h24.068v22.12l-24.068 16.306V8.383ZM350.89.09l.537.374L500.55 102.643v13.062L350.89 13.158 201.177 115.741v-13.062L350.351.464l.539-.373Z" clip-rule="evenodd"/><path fill="#1D588E" d="M25.382 281.657c-2.646 4.551-6.845 6.951-12.067 6.951-7.234 0-13.197-6.492-13.197-13.444 0-7.868 6.21-13.655 13.232-13.655 4.94 0 9.562 2.258 12.208 7.163h-4.587c-1.976-2.294-4.27-3.67-7.339-3.67-5.469 0-9.703 4.623-9.703 9.809 0 5.47 4.128 10.304 9.491 10.304 2.717 0 5.152-1.059 7.27-3.458h4.692Zm19.663 6.457-2.894-7.692h-9.385l-2.894 7.692H25.85l9.915-26.111h3.422l9.915 26.111h-4.057Zm-7.516-21.171h-.07l-3.353 9.986h6.74l-3.317-9.986Zm26.307 21.171-8.61-12.103h-.07v12.103h-3.81v-26.111h8.362c6.28 0 9.068 3.317 9.068 8.68 0 4.976-3.811 7.586-7.48 7.692l7.303 9.739h-4.763Zm-5.893-12.632c4.446 0 7.022-1.729 7.022-5.116 0-2.999-2.4-4.869-5.787-4.869h-4.022v9.985h2.787Zm26.844 12.632-8.61-12.103h-.07v12.103h-3.811v-26.111h8.362c6.281 0 9.068 3.317 9.068 8.68 0 4.976-3.81 7.586-7.48 7.692l7.304 9.739h-4.763Zm-5.893-12.632c4.446 0 7.022-1.729 7.022-5.116 0-2.999-2.4-4.869-5.787-4.869h-4.022v9.985h2.787Zm14.512 12.632v-26.111h7.092c4.798 0 7.833 3 7.833 7.093 0 2.222-.635 3.634-2.329 5.08 2.505 1.412 3.881 3.423 3.881 6.352 0 4.657-3.493 7.586-8.256 7.586h-8.221Zm6.951-15.243c2.575 0 4.163-1.235 4.163-3.67 0-2.505-1.588-3.704-4.375-3.704h-2.929v7.374h3.141Zm.952 11.75c2.717 0 4.764-1.553 4.764-4.093 0-1.764-1.2-4.164-4.658-4.164h-4.199v8.257h4.093Zm24.038 3.987c-7.233 0-13.373-6.21-13.373-13.267 0-8.01 6.14-13.832 13.479-13.832 7.763 0 13.691 6.104 13.691 13.373 0 7.904-6.105 13.726-13.797 13.726Zm9.986-13.479c0-5.398-4.093-10.127-9.598-10.127-7.057 0-9.95 6.069-9.95 9.951 0 5.257 3.811 10.162 9.774 10.162 6.175 0 9.774-5.222 9.774-9.986Zm19.835 12.985-8.609-12.103h-.071v12.103h-3.811v-26.111h8.363c6.281 0 9.068 3.317 9.068 8.68 0 4.976-3.811 7.586-7.48 7.692l7.304 9.739h-4.764Zm-5.892-12.632c4.446 0 7.021-1.729 7.021-5.116 0-2.999-2.399-4.869-5.786-4.869h-4.023v9.985h2.788Zm26.211 13.126c-7.233 0-13.372-6.21-13.372-13.267 0-8.01 6.139-13.832 13.478-13.832 7.763 0 13.691 6.104 13.691 13.373 0 7.904-6.104 13.726-13.797 13.726Zm9.986-13.479c0-5.398-4.093-10.127-9.598-10.127-7.056 0-9.95 6.069-9.95 9.951 0 5.257 3.811 10.162 9.774 10.162 6.175 0 9.774-5.222 9.774-9.986Zm18.204 12.985v-26.111h13.197v3.494h-9.386v7.833h9.386v3.493h-9.386v11.291h-3.811Zm32.013 0-2.893-7.692h-9.386l-2.893 7.692h-4.023l9.915-26.111h3.423l9.915 26.111h-4.058Zm-7.515-21.171h-.071l-3.352 9.986h6.739l-3.316-9.986Zm37.862 21.171v-22.053h-.106l-8.785 22.053h-2.294l-8.821-22.053h-.071v22.053h-3.81v-26.111h5.998l7.833 20.007 7.869-20.007h5.998v26.111h-3.811Zm8.865 0v-26.111h3.811v26.111h-3.811Zm8.831 0v-26.111h3.811v22.618h9.068v3.493h-12.879Zm17.723 0v-9.421l-8.116-16.69h4.269l5.752 12.244 5.716-12.244h4.234l-8.045 16.69v9.421h-3.81Zm49.643 0v-22.053h-.106l-8.786 22.053h-2.293l-8.821-22.053h-.071v22.053h-3.811v-26.111h5.999l7.833 20.007 7.868-20.007h5.999v26.111h-3.811Zm8.71 0v-26.111h14.078v3.494h-10.268v7.692h10.268v3.493h-10.268v7.939h10.268v3.493h-14.078Zm18.138 0v-26.111h9.069c7.903 0 12.737 6.246 12.737 13.056 0 7.974-5.045 13.055-13.302 13.055h-8.504Zm8.363-3.493c6.034 0 9.633-3.529 9.633-9.492 0-5.857-4.129-9.632-9.457-9.632h-4.728v19.124h4.552Zm17.345 3.493v-26.111h3.81v26.111h-3.81Zm32.655-6.457c-2.647 4.551-6.846 6.951-12.067 6.951-7.234 0-13.197-6.492-13.197-13.444 0-7.868 6.21-13.655 13.232-13.655 4.94 0 9.562 2.258 12.208 7.163h-4.587c-1.976-2.294-4.269-3.67-7.339-3.67-5.469 0-9.703 4.623-9.703 9.809 0 5.47 4.128 10.304 9.491 10.304 2.717 0 5.152-1.059 7.269-3.458h4.693Zm3.174 6.457v-26.111h3.811v26.111h-3.811Zm25.563 0-12.914-20.183h-.071v20.183h-3.811v-26.111h4.164l12.702 19.866h.071v-19.866h3.811v26.111h-3.952Zm8.829 0v-26.111h14.079v3.494h-10.268v7.692h10.268v3.493h-10.268v7.939h10.268v3.493h-14.079Zm53.42-6.457c-2.647 4.551-6.845 6.951-12.067 6.951-7.234 0-13.197-6.492-13.197-13.444 0-7.868 6.21-13.655 13.232-13.655 4.94 0 9.562 2.258 12.208 7.163h-4.587c-1.976-2.294-4.269-3.67-7.339-3.67-5.469 0-9.703 4.623-9.703 9.809 0 5.47 4.128 10.304 9.492 10.304 2.716 0 5.151-1.059 7.268-3.458h4.693Zm3.033 6.457v-26.111h14.078v3.494H534.14v7.692h10.267v3.493H534.14v7.939h10.267v3.493h-14.078Zm35.093 0-12.914-20.183h-.071v20.183h-3.811v-26.111h4.164l12.702 19.866h.071v-19.866h3.811v26.111h-3.952Zm11.286 0v-22.617h-5.011v-3.494h13.832v3.494h-5.011v22.617h-3.81Zm10.962 0v-26.111h14.079v3.494h-10.268v7.692h10.268v3.493h-10.268v7.939h10.268v3.493H587.67Zm30.629 0-8.609-12.103h-.071v12.103h-3.81v-26.111h8.362c6.281 0 9.068 3.317 9.068 8.68 0 4.976-3.81 7.586-7.48 7.692l7.304 9.739h-4.764Zm-5.892-12.632c4.446 0 7.022-1.729 7.022-5.116 0-2.999-2.4-4.869-5.787-4.869h-4.023v9.985h2.788Zm14.377 14.925c.953-.352 1.306-.776 1.306-2.293h-1.306v-4.305h3.67v4.058c0 2.611-1.165 4.234-3.67 4.728v-2.188Zm19.758-2.293v-26.111h7.586c5.611 0 9.174 2.788 9.174 7.904s-3.493 7.904-9.138 7.904h-3.811v10.303h-3.811Zm7.586-13.796c3.352 0 5.364-1.588 5.364-4.411 0-2.858-2.082-4.41-5.399-4.41h-3.74v8.821h3.775Zm7.6 13.796v-4.305h3.669v4.305h-3.669Zm26.632 0-2.894-7.692h-9.385l-2.894 7.692h-4.022l9.915-26.111h3.422l9.915 26.111h-4.057Zm-7.516-21.171h-.07l-3.352 9.986h6.739l-3.317-9.986Zm15.401 21.171v-4.305h3.669v4.305h-3.669ZM349.127 150.493c.068-1.071 2.891-1.608 4.415-9.164 1.472-7.291-2.008-11.638-3.145-13.914-1.136-2.273-2.875-8.226-3.344-10.501-.469-2.274-2.006-4.615-2.876-5.752-.869-1.139-.602-2.676-.602-2.676s.466 1.137 1.069 2.273c.602 1.137 1.875 1.807 1.875 1.807s1.003 1.338 1.673 2.81c.668 1.472.736 4.348.736 4.348v-1.807c0-1.805.466-4.683.466-4.683s.335 1.139.537 2.608c.199 1.472-.27 2.944-.27 2.944s.27-.668.535-1.807c.269-1.137-.199-4.413-.199-6.152 0-1.739 1.471-3.145 1.471-3.145l-.536 2.276s1.005-1.472 1.431-3.478c.428-2.009-.562-5.285-.426-6.49.134-1.204-.67-3.546-.602-5.685.065-2.14.804-4.214 1.003-5.62.199-1.404-.804-3.075-1.54-4.615-.736-1.537-2.54-4.145-4.279-5.685-1.742-1.538-5.487-3.544-10.837-2.075-5.351 1.472-7.828 8.428-8.561 10.101-.736 1.674-1.938 3.478-3.078 4.683-1.136 1.205-1.071 4.015-1.071 4.015s.134-.804.603-2.009c.468-1.202 3.546-3.342 3.546-3.342s-.872 1.268-1.674 2.072c-.801.804-1.27 2.876-2.139 4.014-.87 1.137-3.478 1.805-3.478 1.805s.935-.066 1.938-.267c1.005-.202 2.275-1.071 2.275-1.071s-.335.602-.67 1.071c-.333.466-2.807 1.205-4.146 1.777-1.338.574-2.608 2.371-2.608 2.371s.466-.469 2.208-1.605c1.739-1.14 4.546-.668 4.546-.668s-.869-.068-1.404 0c-.534.065-3.344 1.603-3.344 1.603s-.67.537-1.739 1.406c-1.071.87-1.739 3.276-2.276 3.745-.534.469-1.706 3.947-1.706 3.947s-2.238 3.41-3.442 5.552c-1.205 2.139-4.817 9.229-5.152 10.635-.332 1.404.535 1.938 1.805 3.077 1.272 1.137 5.62 6.555 8.029 7.692 2.407 1.137 7.425 4.816 7.425 4.816s-.625 2.52-1.16 5.285c-.534 2.765-.045 6.822.267 8.427.313 1.606 1.782 4.817 1.782 5.553 0 .735.403.914 1.074.914.668 0 3.165.489 3.165.489s.222 3.299.222 5.396.847 9.766 1.429 13.468c.58 3.7-.582 8.607-.628 10.167-.042 1.562-1.736 5.796-3.208 10.211-1.472 4.418-.582 12.667-.448 16.904.136 4.236-.714 6.151-.714 6.151s-.042.222-.935.935c-.892.716-1.784 3.526-1.872 5.666-.088 2.139 1.338 5.708 1.338 5.708s2.719.713 3.077.534c.356-.179 0 0 .444-.179.448-.179 1.651.046 3.39.895 1.741.844 4.727 2.228 7.492 2.583 2.765.358 5.618-.443 6.689-2.094 1.068-1.651-3.077-3.032-4.816-3.836-1.739-.804-4.459-4.992-5.93-8.294-1.472-3.301.221-8.831.446-10.567.221-1.739 2.228-7.629 2.228-7.629s1.025 5.933.667 6.603c-.355.668-.801.935-1.156 1.56-.358.623-1.026 3.39-.938 5.709.091 2.318 1.338 4.68 1.338 4.68l3.123-.489s.401-.535.847-.85c.443-.31 1.605-.352 2.719-.133 1.114.224 3.969.937 6.691.491 2.717-.446 4.637-1.784 4.592-2.807-.045-1.026-.983-1.339-1.918-1.296-.935.046-2.719-.088-4.773-1.381-2.052-1.293-3.387-5.975-3.7-8.427-.312-2.455-.045-9.721-.045-12.085 0-2.364 1.162-10.078 2.008-11.996.845-1.918 1.472-3.924 1.606-5.62.131-1.694.756-9.766.935-11.371.179-1.606.4-8.07.4-8.07l1.83-12.442Zm-27.558-17.652s-2.81-2.618-4.013-4.289c-1.204-1.671-1.807-3.544-1.807-3.544s.401-.335 1.004-1.005c.602-.668 1.905-2.14 1.905-2.14s1.572 2.14 1.706 3.347c.134 1.202 1.137 2.54 1.205 3.075.065.534 0 4.556 0 4.556Z"/><path fill="#FFC906" d="M379.721 158.97c-.368-.691-.966-1.991-1.162-3.393-.209-1.396-1.369-3.417-1.643-3.792-.273-.378-.383-1.402-.578-1.812-.211-.416-.793-.235-.793-.235s-.512-1.199-.613-1.852c-.108-.645.182-.882.343-1.603.166-.723.244-1.265.348-2.054.085-.786.647-1.263.806-1.809.184-.55-.779-1.54-.779-1.54s-.688-1.018-1.023-1.434c-.348-.411-.549-.582-.816-.305-.288.267.133 1.088.133 1.088s-.678-.549-1.033-.645c-.335-.106-.444.34-.335.681.106.342.542.852.824 1.131.262.27-.076 1.19-.416 2.082-.34.89-.617 1.298-.895 1.366-.267.068-.746-.577-.746-.577s0-.313-.032-.62c-.038-.308-.242-1.061-.507-1.948-.282-.89-.864-1.132-1.782-1.603-.922-.476-1.479-1.442-2.848-1.984-1.36-.549-4.259-.446-5.055-.1-.784.337-1.227.582-2.084.72-.852.132-1.943 1.636-2.359 2.763-.403 1.129-1.301 2.396-1.638 3.901-.346 1.499.544 3.589.544 3.589s-.345.342-.403.952c-.076.618.537 2.568.854 3.458.303.887.504.514.504.514s.242.58.406.958c.181.375 1.036 1.227 1.436 1.802.416.587.384 2.565.384 2.565l-.58-.201s-.441.307-.653.582c-.204.277-1.439.171-2.051.201-.61.036-.993.449-1.298.963-.308.509-1.167.235-1.888.343-.708.096-1.424.817-1.87 1.23-.443.408-1.074 1.326-1.308 1.709-.232.38-.746.819-1.056.96-.297.126-.854.879-.854.879l-.272-.408.247-.345s.302-.403.436-.814c.146-.411.486-.613.96-.958s1.26-.615 1.58-1.132c.297-.511 0-.713-.343-.851-.35-.134-.763.138-1.237.373a3.513 3.513 0 0 1-1.396.345c-.31 0-.55-.345-.852-.852-.315-.514-.764-.993-.973-1.366-.199-.38-.297-.958-.373-1.509-.063-.542-.31-.721-.713-.575-.414.131-.376.643-.376 1.26 0 .615.434 1.573.434 1.573v.209l-.305.063s-.335-.618-.507-.857c-.171-.24-.191-.474-.191-.887 0-.409.02-.65-.149-.751-.171-.109-.822.138-1.018.65-.214.514 0 1.265 0 1.265s-.86.169-1.212.446c-.331.27-.031.887.277 1.464.305.583 1.031 1.238 1.031 1.238l-.177.166s-.95-.342-1.227-.106c-.275.245.209.824.474.9.29.063.783.607.783.607s-.231 1.263-.37 1.75c-.123.471-.3.612-.481.781-.167.171-.167.683 0 1.197.181.509-.197 1.194-.341 2.429-.136 1.23.225 2.183 1.099 3.468.867 1.283 2.309.973 3.123.822.821-.154 2.769-1.384 3.589-2.359.824-.976 2.263-1.084 2.263-1.084s-.104 1.747.053 2.929c.148 1.179.826 1.696.912 2.973.106 1.281-.87 2.309-.87 2.309s0 1.122.106 1.847c.104.721.411 1.124.764 1.538.363.413.207.821-.086 1.227-.32.411.406 1.079.812 2.414.413 1.331-.099 2.306-.099 2.306l.86.26s-.56 1.787-.822 2.916c-.249 1.136 0 2.777.32 4.415.298 1.641-.665 4.259-.778 5.892-.101 1.646.209 2.417.72 3.385.512.98.058 1.54-.053 2.157-.095.618.565 1.23.772 1.591.214.357-.31.972-.31 1.537 0 .559.834.827.834.827l.249.967s-.41 1.127-.617 1.848c-.202.715.673 1.691.673 1.691s-.673.204-.93.506c-.262.315.257 1.545.153 2.468-.098.925.356 2.565.356 2.565s-.509.766-.663 1.333c-.154.562.363 1.23.363 1.23l-.726.358.111.668h-.512l.247 1.179s-.148 1.029-.511 1.744c-.363.713-.098 2.41-.098 2.41s-.82.821-1.177 1.335c-.363.509-1.853.258-2.982.303-1.126.053-1.018 1.693-1.018 1.693s-.517.459-.411 1.077a2.81 2.81 0 0 0 1.48 2.056c1.03.562 3.288.617 4.407.358 1.134-.26 2.314.408 3.7.67 1.386.245 4.05-.055 4.662-.262.613-.204.613-2.051.613-2.051l-.35-.56s.1-.569.1-.978c0-.408-.151-.977-.413-1.287-.254-.305-.295-3.178-.295-3.178s.446-.305.608-.764c.153-.461-.467-.62-.467-.62l.154-.514s.262-.557.514-.87c.262-.305-.411-.612-.411-.612s.767-.307.918-.973c.153-.668-.358-.567-.555-1.799-.204-1.228.154-1.331.464-2.251.302-.927.048-3.082.048-3.082s.668-.665.615-1.384c-.051-.718-.318-.972-.615-1.436-.315-.454.353-.771.506-1.023.162-.255-.047-2.155-.047-2.155s.66 0 .821-.66c.154-.676-.161-.774-.209-2.672-.045-1.9.519-3.747.519-3.747s.862 1.34.923 1.955c.052.613-.215 2.354-.154 3.277.045.919.713 1.744.713 2.361 0 .61-.156 2.152.101 2.563.262.406 1.497-.048 1.497-.048l.348.305.053.87.665.516s-.509.724-.665 1.122c-.154.413.357 1.335.665 1.744.312.413.26 1.849.26 1.849l-.305.361v1.074l-.512.156-.411.461.101 1.54.965.36s-.191 1.023-.501 1.795c-.315.768-.262 1.895-.262 1.895l-.767 1.126s-1.436.207-2.006.512c-.559.31-.864 1.946-.864 1.946s-.524.262-.524.67c0 .413.209 1.129.99 1.696.761.562 2.81.814 3.634.771.822-.06 1.447.151 1.996.56.57.413 3.904.413 4.874.156.976-.26 1.134-2.054 1.134-2.054l-.521-.512s.31-.662.267-1.287c-.058-.605-.308-.761-.512-1.225-.219-.461 0-1.696.204-2.314.197-.61.815-1.635 1.072-2.255.259-.613-.923-.814-.923-.814l.048-1.132s.92.053 1.192-.255c.247-.312-.421-1.282-.877-2.258-.471-.973-.315-1.739-.262-3.538.058-1.794-.721-4-.721-4s.267-.41.267-.763c0-.358-.416-1.442-.416-1.442l.048-.612-.715-.62-.149-.509.249-.62-.302-.512.358-.302-.305-1.079s.358-.617.564-1.23c.205-.617.101-.867-.1-1.388-.215-.512.352-.716.458-1.233.091-.506-.257-.968-.516-1.482-.257-.516.058-1.383.259-2.661.199-1.283-.201-3.493-.516-4.365-.305-.875.257-1.081.463-1.847.204-.771.157-1.079 0-1.797-.148-.711.204-.971.353-1.946.162-.973.111-1.895 0-3.125-.101-1.237-.789-2.634-.789-2.634l-.463-.927s.206-.92.09-1.331c-.09-.413-.378-.988-.378-.988s.212-.582.441-1.577c.245-.988-.335-1.608-.569-1.979-.242-.378.101-1.197.234-1.875.144-.688-.106-.932-.302-1.476-.209-.547.274-1.843.615-2.601.332-.749.332-2.904.332-2.904s.388-.922.865-1.333c.479-.411.645-.718.887-1.401.244-.683.615-.439 1.406-1.467.784-1.031 1.195-1.335 2.152-2.263.956-.92.716-2.188.716-2.188s.54-.098.678-.715c.144-.618-.138-1.265-.506-1.943Zm-7.039-.451s-.625-.58-.993-.678c-.378-.109-.827.274-1.339.438-.519.172-1.088.03-1.469-.068-.37-.096-.824-.403-.824-.403l-.438.471s-.278-1.436-.215-1.91c.081-.481.582-1.064 1.031-1.578.446-.509 1.162-1.744 1.162-1.744s.65.237 1.056-.274c.416-.505.721-1.671.69-2.329-.032-.645-.378-1.255-.378-1.255l-.443-.204.03-.993s.517.171.759.478c.234.308.511.991.579 1.407.066.403.242.852.242.852l-.31.337s-.201 1.202.267 2.054c.487.857.512.92.789 1.88.272.956.106 1.432.033 1.913-.061.479.355 1.366.355 1.366l-.584.24Z"/></svg>