<svg xmlns="http://www.w3.org/2000/svg" fill="none" viewBox="0 0 600 251"><g clip-path="url(#a)"><path fill="#EC1C24" d="M262.739 149.995c-.497 5.338-1.138 10.663-1.627 16-.088.966-.378 1.396-1.311 1.521-.739.1-1.73.106-2.106.568-.369.454-.186 1.433-.108 2.167.33 3.106-.68 5.938-1.603 8.824-1.099 3.442-2.147 6.915-2.929 10.438-.648 2.919-.134 5.874.639 8.747.398 1.484 1.037 2.929 1.21 4.435.158 1.389.004 2.873-.318 4.242-.343 1.465-1.46 1.759-2.693.849-1.169-.857-2.26-1.821-3.692-2.987-.216.734-.49 1.261-.508 1.795-.056 1.607-1.693 2.724-3.063 1.953-1.687-.953-3.121-2.219-4.137-3.899-.179-.294-.334-.653-.352-.988-.179-3.65-.691-7.333-.363-10.941.229-2.517-.352-4.67-1.056-6.912-.965-3.079-2.123-6.103-2.951-9.216-.369-1.391-.272-2.953-.142-4.415.125-1.435.559-2.841.87-4.327-1.218-.205-2.352-.393-3.484-.59-.639-.11-.823-.501-.832-1.14-.09-7.073-.194-14.145-.322-21.218-.049-2.702-.244-5.402-.246-8.1-.002-2.016.009-4.068.363-6.04.326-1.83 1.119-3.575 1.704-5.36.607-1.838 1.21-3.674 1.772-5.374-1.62-.158-3.245-.039-4.668-.512-3.038-1.011-5.291-3.202-6.809-5.945-.514-.924-.385-2.4-.123-3.525.65-2.828 1.512-5.608 2.352-8.388.767-2.545 1.67-5.046 2.411-7.6.905-3.11 2.92-5.171 5.763-6.571 2.126-1.05 4.215-2.175 6.34-3.277-.369-1.616 1.407-1.346 1.998-2.245-.82-2.008-1.38-4.242-2.566-6.07-1.445-2.229-1.015-4.61-1.166-6.904-.154-2.294 1.374-3.968 3.329-5.067 2.069-1.162 4.428-1.564 6.726-1.726 2.219-.158 4.295.648 5.982 2.283 1.572 1.527 2.616 3.338 3.216 5.413a3.83 3.83 0 0 1 .113 1.58c-.292 1.976-.499 3.992-1.057 5.897-.224.762-1.3 1.261-1.955 1.916a17.765 17.765 0 0 0-1.574 1.776c-.087.11.09.546.265.706a26.914 26.914 0 0 0 2.191 1.847c.76.566 1.447 1.106 1.479 2.184.009.24.435.6.724.672 1.335.324 2.692.566 4.225 1.11l-1.095.75c1.057.866 2.091 1.594 2.97 2.477.67.674 1.305 1.48 1.668 2.346 2.26 5.381 2.724 11.06 2.668 16.824-.017 1.756-.525 2.987-2.327 3.704-2.106.839-4.071 2.046-6.629 1.713.019.426-.004.733.049 1.022.847 4.645 1.731 9.285 2.543 13.936.246 1.415.279 2.866.454 4.296l-.212 15.346Zm-16.642 41.542c.119-.008.238-.019.356-.028.281-.866.795-1.73.804-2.598.035-3.757-.015-7.518-.162-11.27-.099-2.504-.655-4.99.119-7.494.304-.989.33-2.063.518-3.333-.317.255-.525.333-.548.452-.27 1.309-.646 2.618-.735 3.944-.216 3.148-.266 6.304-.43 9.453-.142 2.685-.427 5.368-.503 8.053-.028.933.376 1.88.581 2.821Z"/><path fill="#25A149" d="M366.859 125.801c-.644-2.072-.543-4.515-.508-5.092.032-.574.032-7.666.374-9.057.337-1.389.304-7.194 0-8.684-.307-1.493-1.018-4.24-1.018-4.24l.948-.714s-.101-.203-.509-.849c-.406-.643-.711-3.119-.951-4.173-.233-1.05-1.456-6.478-1.693-8.377-.238-1.901-1.223-6.82-1.901-8.449-.676-1.628-1.968-4.307-3.969-5.19-2.002-.882-3.698-1.969-5.361-2.24-1.661-.27-4.714-1.323-5.768-1.493-1.052-.171-1.56-1.087-1.799-.542-.236.542-.983.136-1.085.069-.099-.07-2.272-2.411-2.745-3.496-.478-1.084 1.253-3.64 1.322-6.05.067-2.407-.432-6.874-2.262-8.913-1.832-2.035-5.407-3.798-7.917-3.696-2.51.101-3.426.17-3.426.17l-.441.372s.136-.235-.17.035c-.303.272-.61.475-.61.475s.204.034-.239.034c-.439 0-.642.035-.642.035s-.104.067-.24.168c-.134.102-.611.34-.611.34s-.372.272-.847.678-1.289 1.188-2.544 1.086c-1.253-.101-1.968-.782-1.968-.782s.408.748.747.916c.339.169.508.238.508.238s-.882.101-1.219.544c-.339.441-.544.95-.544.95s.168-.272.544-.544c.372-.27.609-.371.609-.371s-.488.976-.678 1.287c-.27.441-.814.68-.814.68s.44.204.983-.135c.103-.065.373-.205.373-.205s-.576.846-.406 1.56c.063.271.134.68.134.68s0-.374.136-.68c.136-.303.679.034.679.034s-.543.916-.815 1.188c-.27.272-.71.475-.71.475s.609.136 1.017-.238c.125-.114.542-.406.542-.406s.339.711.711 2.171c.376 1.458.24 4.34.849 4.852.611.508.95.812.881 1.186-.067.374-.814 2.985-.371 3.292.44.305.95.27 1.22.238.272-.035.579-.035.579-.035s.099 1.154.439 1.525c.341.374.816.443.816.443s-.069.676.339.95c.406.27.746.644.78.984.035.34-.508 1.259.339 1.944.726.587 1.737.356 1.737.356l1.385-.199s-.51.545-.847.58c-.341.032-1.631.44-2.344.675-.713.24-3.901 1.325-5.053 2.174-1.153.846-3.767 1.356-4.411 3.391-.646 2.035-2.918 4.24-3.665 6.277-.746 2.035-4.511 9.702-5.528 11.024-1.02 1.326-1.97 3.257-1.733 3.564.24.305 1.426 1.322 2.376 1.661.951.342 1.832 1.257 1.832 1.257s-1.22 4.885-1.562 6.14c-.339 1.255-1.153 10.518-1.119 11.671.035 1.154-.339 4.172-.849 5.766-.507 1.596-1.661 5.329-1.661 6.649 0 1.326.281 2.229 1.772 4.541l4.62 1.89c.631-.383.866-2.009.866-2.009s1.087-.363.932-1.016c-.158-.656-.182-2.106-.182-2.918 0-.814.685-2.873.197-3.914-.493-1.039-1.759-3.325-1.713-3.822.047-.499-.046-4.275.656-5.61.702-1.335 2.962-5.519 3.416-7.191.451-1.672 1.957-6.889 2.125-7.09.169-.205.612-1.289 1.121-2.579.508-1.289 2.441-4.037 2.58-4.003.133.035.607.374.607 1.8 0 1.421.849 2.814.611 4.748-.238 1.933-.374 3.426-.406 4.24-.035.815.371 5.226-.612 7.09-.985 1.869-1.086 3.903-.712 4.649.373.745.645 3.02.645 3.02s-1.324 5.087-.712 8.174c.609 3.087.371 10.01.745 12.08.374 2.069 1.058 9.668 1.093 11.025.039 1.357.853 2.579 1.035 4.161.181 1.583.859 3.212.769 3.935-.223 1.748.438.921 1.173.77.888-.184 1.134.496 1.134.496s-.815.908-.771 3.122c.045 2.218 2.309 14.836 2.352 17.506.045 2.668.363 8.144-.497 9.77-.857 1.627-4.703 7.509-3.979 9.229.722 1.719 5.154 3.158 6.647 2.523 1.495-.633 2.625-4.243 2.897-5.692.272-1.443 2.713-2.441 2.532-4.433-.182-1.99-1.312-7.461-1.357-8.863-.045-1.402 1.084-6.107 1.447-9.41.363-3.301 1.674-6.692 1.402-10.63-.27-3.936.521-1.696.748-3.053.224-1.358.293-11.105.293-11.105s.858-1.583.543-2.216c-.316-.633-.136-3.303-.136-3.982 0-.678.974-.905 1.021.679.043 1.583.767 4.709.815 5.841.045 1.13.654 3.663 1.017 4.884.361 1.223 1.082 5.334.994 6.057-.093.724.315.996.721.903.406-.088 1.085-.222 1.085-.222s-.18 4.612.814 7.055c.996 2.443 2.037 5.247 2.895 7.327.862 2.082 1.903 9.816 1.903 10.812 0 .996-2.29 3.443-1.882 4.99.679 2.579 2.943 2.361 2.943 3.309 0 .951.477 7.302 2.242 7.669 1.763.365 8.051-.499 8.003-2.579-.045-2.081-3.164-5.79-3.482-7.058-.315-1.266-1.808-5.97-1.808-6.966 0-.996-.136-6.74.451-11.354.588-4.612-.328-10.376-1.14-15.057-.175-1.002 3.733-.68 3.37-1.222-.361-.545-.838-3.234-.884-4.681-.047-1.448-.08-2.424-.622-4.55-.544-2.125.136-5.385.045-6.833-.09-1.447.091-5.063-.226-6.106-.316-1.039-.048-2.984-.048-2.984s.817.147 1.225-.159c.406-.305.745-.543.745-.543s.363.407 1.333 0c.974-.406 1.415-.881 1.415-.881s1.02-.339 1.527-.78c.508-.44 1.493-.985 1.765-2.477.27-1.491.881-4.174.236-6.241Z"/><path fill="#1D588E" fill-rule="evenodd" d="M237.616 7.185h20.629v18.96l-20.629 13.976V7.185ZM300.763.078l.46.32 127.82 87.582v11.196l-128.28-87.898-128.325 87.928V88.01L300.301.398l.462-.32Z" clip-rule="evenodd"/><path fill="#1D588E" d="M21.756 241.42c-2.268 3.902-5.867 5.958-10.344 5.958-6.2 0-11.31-5.565-11.31-11.523 0-6.744 5.322-11.704 11.34-11.704 4.235 0 8.197 1.935 10.465 6.139h-3.932c-1.693-1.966-3.66-3.145-6.29-3.145-4.688 0-8.317 3.962-8.317 8.408 0 4.688 3.538 8.831 8.135 8.831 2.329 0 4.416-.907 6.23-2.964h4.023Zm16.854 5.535-2.48-6.593h-8.045l-2.48 6.593h-3.448l8.499-22.381h2.933l8.499 22.381H38.61Zm-6.442-18.146h-.06l-2.874 8.559h5.777l-2.843-8.559Zm22.549 18.146-7.38-10.374h-.06v10.374H44.01v-22.381h7.168c5.383 0 7.773 2.843 7.773 7.44 0 4.265-3.267 6.503-6.412 6.594l6.26 8.347h-4.082Zm-5.051-10.827c3.81 0 6.018-1.482 6.018-4.386 0-2.571-2.056-4.173-4.96-4.173h-3.447v8.559h2.389Zm23.008 10.827-7.38-10.374h-.06v10.374h-3.266v-22.381h7.168c5.383 0 7.772 2.843 7.772 7.44 0 4.265-3.266 6.503-6.411 6.594l6.26 8.347h-4.083Zm-5.05-10.827c3.81 0 6.018-1.482 6.018-4.386 0-2.571-2.057-4.173-4.96-4.173h-3.448v8.559h2.39Zm12.438 10.827v-22.381h6.079c4.113 0 6.714 2.571 6.714 6.079 0 1.906-.544 3.116-1.996 4.355 2.147 1.21 3.327 2.934 3.327 5.444 0 3.993-2.994 6.503-7.077 6.503h-7.047Zm5.958-13.065c2.208 0 3.569-1.059 3.569-3.146 0-2.147-1.361-3.175-3.75-3.175h-2.51v6.321h2.69Zm.817 10.071c2.328 0 4.082-1.331 4.082-3.509 0-1.512-1.028-3.568-3.992-3.568h-3.599v7.077h3.509Zm20.603 3.417c-6.2 0-11.462-5.323-11.462-11.371 0-6.866 5.262-11.856 11.553-11.856 6.654 0 11.735 5.232 11.735 11.462 0 6.775-5.232 11.765-11.826 11.765Zm8.559-11.553c0-4.627-3.508-8.68-8.226-8.68-6.049 0-8.529 5.202-8.529 8.529 0 4.506 3.267 8.71 8.378 8.71 5.293 0 8.377-4.476 8.377-8.559Zm17.002 11.13-7.379-10.374h-.061v10.374h-3.266v-22.381h7.168c5.383 0 7.772 2.843 7.772 7.44 0 4.265-3.266 6.503-6.411 6.594l6.26 8.347h-4.083Zm-5.051-10.827c3.811 0 6.019-1.482 6.019-4.386 0-2.571-2.057-4.173-4.96-4.173h-3.448v8.559h2.389Zm22.468 11.25c-6.2 0-11.463-5.323-11.463-11.371 0-6.866 5.263-11.856 11.553-11.856 6.654 0 11.735 5.232 11.735 11.462 0 6.775-5.232 11.765-11.825 11.765Zm8.559-11.553c0-4.627-3.508-8.68-8.227-8.68-6.048 0-8.528 5.202-8.528 8.529 0 4.506 3.266 8.71 8.377 8.71 5.293 0 8.378-4.476 8.378-8.559Zm15.604 11.13v-22.381h11.311v2.995h-8.045v6.714h8.045v2.994h-8.045v9.678h-3.266Zm27.439 0-2.48-6.593h-8.045l-2.48 6.593h-3.448l8.499-22.381H197l8.498 22.381h-3.478Zm-6.442-18.146h-.06l-2.873 8.559h5.776l-2.843-8.559Zm32.454 18.146v-18.903h-.091l-7.531 18.903h-1.965l-7.561-18.903h-.061v18.903h-3.266v-22.381h5.141l6.714 17.149 6.745-17.149h5.141v22.381h-3.266Zm7.599 0v-22.381h3.266v22.381h-3.266Zm7.569 0v-22.381h3.266v19.387h7.773v2.994H243.2Zm15.191 0v-8.075l-6.957-14.306h3.66l4.93 10.495 4.899-10.495h3.63l-6.896 14.306v8.075h-3.266Zm42.551 0v-18.903h-.091l-7.53 18.903h-1.966l-7.561-18.903h-.061v18.903h-3.266v-22.381h5.141l6.714 17.149 6.745-17.149h5.141v22.381h-3.266Zm7.465 0v-22.381h12.068v2.995h-8.801v6.593h8.801v2.994h-8.801v6.805h8.801v2.994h-12.068Zm15.548 0v-22.381h7.773c6.774 0 10.918 5.353 10.918 11.191 0 6.835-4.325 11.19-11.402 11.19h-7.289Zm7.168-2.994c5.172 0 8.256-3.025 8.256-8.136 0-5.02-3.538-8.256-8.105-8.256h-4.053v16.392h3.902Zm14.867 2.994v-22.381h3.266v22.381h-3.266Zm27.99-5.535c-2.269 3.902-5.868 5.958-10.344 5.958-6.2 0-11.311-5.565-11.311-11.523 0-6.744 5.323-11.704 11.342-11.704 4.234 0 8.196 1.935 10.464 6.139h-3.932c-1.693-1.966-3.659-3.145-6.29-3.145-4.688 0-8.318 3.962-8.318 8.408 0 4.688 3.539 8.831 8.136 8.831 2.329 0 4.416-.907 6.23-2.964h4.023Zm2.72 5.535v-22.381h3.267v22.381H376.7Zm21.911 0-11.069-17.3h-.06v17.3h-3.266v-22.381h3.568l10.888 17.028h.061v-17.028h3.266v22.381h-3.388Zm7.569 0v-22.381h12.068v2.995h-8.802v6.593h8.802v2.994h-8.802v6.805h8.802v2.994H406.18Zm45.788-5.535c-2.268 3.902-5.868 5.958-10.343 5.958-6.2 0-11.312-5.565-11.312-11.523 0-6.744 5.323-11.704 11.342-11.704 4.234 0 8.196 1.935 10.464 6.139h-3.932c-1.693-1.966-3.659-3.145-6.29-3.145-4.688 0-8.317 3.962-8.317 8.408 0 4.688 3.538 8.831 8.135 8.831 2.329 0 4.416-.907 6.23-2.964h4.023Zm2.6 5.535v-22.381h12.067v2.995h-8.801v6.593h8.801v2.994h-8.801v6.805h8.801v2.994h-12.067Zm30.079 0-11.069-17.3h-.06v17.3h-3.267v-22.381h3.569l10.888 17.028h.06v-17.028h3.267v22.381h-3.388Zm9.674 0v-19.386h-4.295v-2.995h11.856v2.995h-4.295v19.386h-3.266Zm9.396 0v-22.381h12.068v2.995h-8.802v6.593h8.802v2.994h-8.802v6.805h8.802v2.994h-12.068Zm26.254 0-7.38-10.374h-.06v10.374h-3.267v-22.381h7.168c5.384 0 7.773 2.843 7.773 7.44 0 4.265-3.266 6.503-6.412 6.594l6.261 8.347h-4.083Zm-5.051-10.827c3.811 0 6.019-1.482 6.019-4.386 0-2.571-2.057-4.173-4.96-4.173h-3.448v8.559h2.389Zm12.324 12.793c.816-.303 1.119-.666 1.119-1.966h-1.119v-3.69h3.145v3.478c0 2.238-.998 3.63-3.145 4.053v-1.875Zm16.935-1.966v-22.381h6.502c4.809 0 7.864 2.39 7.864 6.775s-2.994 6.775-7.833 6.775h-3.267v8.831h-3.266Zm6.502-11.825c2.874 0 4.598-1.361 4.598-3.781 0-2.45-1.785-3.78-4.628-3.78h-3.206v7.561h3.236Zm6.514 11.825v-3.69h3.146v3.69h-3.146Zm22.828 0-2.48-6.593h-8.045l-2.48 6.593h-3.448l8.498-22.381h2.934l8.499 22.381h-3.478Zm-6.442-18.146h-.061l-2.873 8.559h5.777l-2.843-8.559Zm13.2 18.146v-3.69h3.146v3.69h-3.146ZM299.252 128.994c.058-.918 2.478-1.378 3.784-7.855 1.262-6.249-1.721-9.975-2.695-11.926-.975-1.948-2.465-7.051-2.867-9.001-.402-1.949-1.72-3.956-2.465-4.93-.745-.976-.516-2.294-.516-2.294s.4.974.916 1.948c.516.975 1.607 1.55 1.607 1.55s.86 1.146 1.434 2.408c.573 1.261.631 3.726.631 3.726v-1.549c0-1.546.4-4.013.4-4.013s.287.976.46 2.235c.171 1.262-.231 2.524-.231 2.524s.231-.573.458-1.549c.231-.975-.171-3.783-.171-5.273 0-1.49 1.262-2.696 1.262-2.696l-.461 1.95s.862-1.261 1.228-2.98c.367-1.722-.482-4.53-.366-5.563.115-1.032-.574-3.04-.516-4.873.056-1.834.689-3.612.86-4.818.171-1.203-.689-2.635-1.32-3.955-.631-1.318-2.177-3.553-3.668-4.873-1.493-1.318-4.703-3.037-9.289-1.778-4.586 1.261-6.709 7.223-7.338 8.658-.631 1.434-1.661 2.981-2.637 4.014-.975 1.032-.919 3.44-.919 3.44s.115-.688.517-1.721c.402-1.03 3.039-2.864 3.039-2.864s-.747 1.086-1.434 1.775c-.687.69-1.089 2.465-1.834 3.441-.745.975-2.981 1.547-2.981 1.547s.801-.056 1.661-.229c.862-.173 1.951-.918 1.951-.918s-.288.516-.575.918c-.285.4-2.406 1.033-3.554 1.523-1.147.493-2.235 2.033-2.235 2.033s.399-.402 1.892-1.376c1.491-.977 3.897-.573 3.897-.573s-.745-.058-1.203 0c-.458.056-2.867 1.374-2.867 1.374s-.574.46-1.49 1.206c-.918.745-1.491 2.808-1.951 3.21-.458.401-1.462 3.382-1.462 3.382s-1.919 2.923-2.951 4.76c-1.033 1.833-4.128 7.91-4.416 9.115-.285 1.204.458 1.662 1.547 2.638 1.091.974 4.817 5.619 6.882 6.593 2.063.974 6.364 4.128 6.364 4.128s-.535 2.16-.993 4.53c-.458 2.369-.039 5.847.229 7.223.267 1.376 1.527 4.129 1.527 4.759 0 .631.345.785.92.785.572 0 2.713.419 2.713.419s.19 2.827.19 4.624c0 1.798.726 8.371 1.225 11.544.497 3.172-.499 7.378-.538 8.715-.036 1.339-1.488 4.968-2.75 8.753-1.261 3.786-.499 10.857-.384 14.488.116 3.631-.612 5.273-.612 5.273s-.036.19-.801.801c-.765.614-1.529 3.023-1.605 4.857-.076 1.834 1.147 4.892 1.147 4.892s2.331.612 2.638.458c.304-.153 0 0 .38-.153.384-.154 1.415.039 2.905.767 1.493.723 4.053 1.909 6.423 2.214 2.369.307 4.815-.38 5.733-1.795.916-1.415-2.638-2.599-4.128-3.288-1.491-.689-3.822-4.279-5.083-7.109-1.262-2.83.19-7.569.382-9.058.19-1.49 1.91-6.539 1.91-6.539s.879 5.085.572 5.66c-.305.573-.687.801-.991 1.337-.307.534-.88 2.906-.804 4.893.078 1.987 1.147 4.011 1.147 4.011l2.676-.419s.344-.457.726-.728c.38-.265 1.376-.302 2.331-.114.955.192 3.402.804 5.735.421 2.329-.382 3.975-1.529 3.936-2.406-.039-.879-.842-1.147-1.644-1.111-.801.039-2.33-.075-4.091-1.183-1.758-1.108-2.903-5.122-3.171-7.224-.268-2.104-.039-8.332-.039-10.358s.996-8.639 1.722-10.283c.723-1.643 1.261-3.363 1.376-4.817.112-1.451.648-8.37.801-9.747.153-1.375.344-6.916.344-6.916l1.568-10.665Zm-23.622-15.13s-2.408-2.244-3.439-3.677c-1.032-1.432-1.549-3.037-1.549-3.037s.344-.287.86-.862c.516-.572 1.633-1.834 1.633-1.834s1.348 1.834 1.463 2.869c.114 1.03.974 2.177 1.032 2.635.056.458 0 3.906 0 3.906Z"/><path fill="#FFC906" d="M325.475 136.26c-.316-.592-.828-1.707-.996-2.908-.179-1.197-1.173-2.929-1.409-3.251-.233-.324-.328-1.201-.494-1.553-.182-.357-.681-.201-.681-.201s-.438-1.028-.525-1.588c-.093-.553.156-.756.294-1.374.143-.62.21-1.084.298-1.76.074-.674.555-1.082.692-1.551.157-.471-.668-1.32-.668-1.32s-.59-.873-.877-1.229c-.298-.352-.471-.499-.7-.262-.246.229.115.934.115.934s-.582-.471-.886-.553c-.287-.091-.38.291-.287.583.09.294.464.73.706.97.225.231-.065 1.019-.356 1.784-.292.763-.53 1.113-.767 1.171-.229.058-.64-.495-.64-.495s0-.268-.028-.531c-.032-.264-.207-.91-.434-1.67-.242-.763-.741-.97-1.527-1.374-.791-.408-1.268-1.235-2.441-1.7-1.167-.471-3.651-.382-4.334-.086-.671.289-1.052.499-1.786.617-.73.113-1.666 1.402-2.022 2.368-.346.968-1.115 2.054-1.404 3.344-.296 1.285.466 3.076.466 3.076s-.295.294-.345.817c-.065.529.46 2.201.732 2.963.259.761.432.441.432.441s.208.497.348.821c.156.322.888 1.052 1.231 1.544.357.504.329 2.2.329 2.2l-.497-.173s-.378.263-.56.499c-.175.237-1.233.147-1.758.172-.523.031-.851.385-1.113.826-.263.436-1 .201-1.618.293-.607.083-1.22.7-1.602 1.055-.381.35-.921 1.136-1.122 1.464-.198.326-.639.702-.905.823-.255.108-.732.754-.732.754l-.233-.35.211-.296s.26-.345.374-.697c.125-.353.417-.525.823-.821.406-.296 1.08-.527 1.355-.97.255-.439 0-.612-.294-.73-.3-.115-.655.118-1.061.319-.406.21-.937.296-1.197.296-.265 0-.47-.296-.73-.73-.27-.44-.654-.851-.834-1.171-.17-.326-.254-.821-.319-1.294-.054-.464-.266-.617-.612-.492-.354.112-.321.551-.321 1.08 0 .527.371 1.348.371 1.348v.179l-.261.054s-.288-.529-.435-.734c-.146-.206-.164-.406-.164-.761 0-.35.018-.557-.127-.643-.147-.093-.704.118-.873.557-.183.441 0 1.084 0 1.084s-.736.145-1.039.383c-.283.231-.026.76.238 1.255.261.499.883 1.06.883 1.06l-.151.143s-.814-.294-1.052-.091c-.235.21.179.707.406.771.249.054.672.521.672.521s-.199 1.082-.318 1.499c-.105.404-.257.525-.412.67-.143.147-.143.585 0 1.026.155.436-.169 1.024-.292 2.082-.116 1.055.192 1.871.942 2.973.743 1.099 1.979.834 2.677.704.704-.132 2.374-1.186 3.076-2.022.706-.836 1.939-.929 1.939-.929s-.088 1.497.046 2.51c.127 1.011.708 1.454.782 2.549.091 1.098-.745 1.979-.745 1.979s0 .961.09 1.583c.089.618.352.964.655 1.318.311.354.177.704-.074 1.052-.274.352.348.925.696 2.07.354 1.14-.084 1.976-.084 1.976l.736.223s-.479 1.531-.704 2.499c-.214.974 0 2.381.274 3.785.255 1.406-.57 3.65-.667 5.05-.086 1.411.179 2.072.618 2.901.438.841.049 1.32-.046 1.849-.082.53.484 1.055.661 1.363.184.307-.265.834-.265 1.318 0 .48.715.709.715.709l.214.829s-.352.966-.53 1.584c-.173.613.577 1.449.577 1.449s-.577.175-.797.434c-.225.27.22 1.324.132 2.115-.085.793.304 2.199.304 2.199s-.436.657-.568 1.143c-.132.482.311 1.054.311 1.054l-.622.307.095.572h-.438l.211 1.011s-.127.882-.438 1.495c-.311.611-.084 2.065-.084 2.065s-.702.704-1.009 1.145c-.311.436-1.588.221-2.556.259-.965.046-.872 1.452-.872 1.452s-.443.393-.352.922a2.407 2.407 0 0 0 1.268 1.763c.883.482 2.819.529 3.778.307.972-.223 1.983.35 3.171.574 1.188.21 3.471-.047 3.996-.224.525-.175.525-1.759.525-1.759l-.3-.479s.086-.488.086-.838-.129-.838-.354-1.104c-.218-.262-.253-2.724-.253-2.724s.383-.262.521-.655c.132-.395-.4-.531-.4-.531l.132-.441s.225-.477.441-.745c.224-.261-.352-.525-.352-.525s.656-.263.786-.834c.132-.572-.307-.486-.475-1.542-.175-1.052.131-1.141.397-1.929.259-.795.041-2.642.041-2.642s.573-.57.527-1.186c-.043-.616-.272-.834-.527-1.231-.27-.389.303-.661.434-.877.139-.219-.041-1.847-.041-1.847s.566 0 .705-.566c.131-.579-.139-.663-.18-2.29-.039-1.629.445-3.212.445-3.212s.739 1.149.791 1.676c.045.525-.184 2.018-.132 2.808.039.789.611 1.495.611 2.024 0 .523-.134 1.845.087 2.197.224.348 1.283-.041 1.283-.041l.298.262.045.745.571.443s-.437.62-.571.961c-.131.354.307 1.145.571 1.495.268.354.222 1.585.222 1.585l-.261.309v.921l-.439.134-.352.395.087 1.32.827.309s-.164.877-.43 1.538c-.27.658-.225 1.624-.225 1.624l-.656.966s-1.232.177-1.72.438c-.479.266-.741 1.668-.741 1.668s-.449.224-.449.574c0 .355.179.968.849 1.454.652.482 2.408.698 3.115.661.704-.052 1.24.13 1.711.48.488.354 3.346.354 4.178.134.836-.223.972-1.761.972-1.761l-.448-.438s.266-.568.229-1.104c-.049-.519-.263-.652-.438-1.05-.188-.395 0-1.454.175-1.983.168-.523.698-1.402.918-1.933.222-.525-.791-.698-.791-.698l.041-.97s.789.045 1.022-.218c.212-.268-.361-1.1-.752-1.936-.404-.834-.27-1.49-.224-3.033.049-1.538-.618-3.428-.618-3.428s.229-.352.229-.654c0-.307-.357-1.236-.357-1.236l.042-.525-.614-.531-.127-.437.213-.531-.259-.439.307-.259-.261-.924s.306-.53.483-1.055c.175-.529.087-.743-.086-1.19-.184-.438.302-.613.393-1.056.078-.434-.22-.83-.443-1.27-.22-.443.05-1.186.223-2.281.171-1.1-.173-2.995-.443-3.742-.261-.75.22-.927.398-1.583.174-.661.133-.925 0-1.541-.128-.609.174-.831.302-1.667.138-.834.095-1.625 0-2.679-.086-1.061-.676-2.257-.676-2.257l-.398-.795s.177-.789.078-1.141c-.078-.354-.324-.847-.324-.847s.182-.499.378-1.352c.21-.847-.287-1.378-.488-1.696-.207-.324.086-1.026.201-1.607.123-.59-.091-.799-.259-1.266-.18-.468.235-1.579.527-2.229.285-.641.285-2.488.285-2.488s.332-.791.741-1.143c.41-.352.553-.616.76-1.201.21-.586.527-.376 1.205-1.258.672-.883 1.024-1.144 1.845-1.939.819-.789.614-1.875.614-1.875s.462-.085.581-.614c.123-.529-.119-1.084-.434-1.665Zm-6.034-.387s-.535-.497-.851-.581c-.324-.093-.708.235-1.147.376-.445.147-.933.026-1.259-.058-.318-.083-.707-.346-.707-.346l-.375.404s-.238-1.232-.184-1.638c.069-.412.499-.911.883-1.352.383-.436.996-1.495.996-1.495s.558.203.905-.235c.357-.432.618-1.432.592-1.996-.028-.553-.324-1.076-.324-1.076l-.38-.175.026-.851s.443.147.65.41c.201.264.439.849.497 1.206.056.345.207.73.207.73l-.265.289s-.173 1.031.229 1.761c.417.734.438.788.676 1.611.233.819.091 1.227.028 1.64-.052.41.304 1.171.304 1.171l-.501.205Z"/></g><defs><clipPath id="a"><path fill="#fff" d="M0 0h600v250.809H0z"/></clipPath></defs></svg>